M48
; DRILL file {KiCad 8.0.2-8.0.2-0~ubuntu22.04.1} date 2024-06-02T21:15:41+0100
; FORMAT={3:3/ absolute / metric / keep zeros}
; #@! TF.CreationDate,2024-06-02T21:15:41+01:00
; #@! TF.GenerationSoftware,Kicad,Pcbnew,8.0.2-8.0.2-0~ubuntu22.04.1
; #@! TF.FileFunction,Plated,1,2,PTH
FMAT,2
METRIC
; #@! TA.AperFunction,Plated,PTH,ViaDrill
T1C0.300
; #@! TA.AperFunction,Plated,PTH,ComponentDrill
T2C0.900
; #@! TA.AperFunction,Plated,PTH,ComponentDrill
T3C1.200
; #@! TA.AperFunction,Plated,PTH,ComponentDrill
T4C2.400
%
G90
G05
T1
X124900Y-066750
X127050Y-067250
X129200Y-133700
X129250Y-132150
X129400Y-129300
X130550Y-120500
X130600Y-069500
X130600Y-117950
X130600Y-119200
X130600Y-121750
X130600Y-123000
X130600Y-125650
X130650Y-071050
X130650Y-072200
X130650Y-073500
X130650Y-074750
X130650Y-097600
X130650Y-098900
X130650Y-106500
X130650Y-107750
X130650Y-109050
X130650Y-110350
X130650Y-111550
X130650Y-112900
X130650Y-114150
X130650Y-115400
X130650Y-116700
X130650Y-124250
X130700Y-076000
X130700Y-100150
X130700Y-101450
X130700Y-102750
X130700Y-103950
X130700Y-105250
X130750Y-077300
X130750Y-078550
X130750Y-079850
X130750Y-081100
X130800Y-082400
X130800Y-083600
X130900Y-084900
X130950Y-086200
X130950Y-096050
X131000Y-087450
X131050Y-088750
X131050Y-092550
X131050Y-094600
X131100Y-090000
X131100Y-091250
X138900Y-087400
X141250Y-125700
X141250Y-132150
X141600Y-133550
X142450Y-111600
X142650Y-129400
X144400Y-062750
X145300Y-064250
X146350Y-065750
X146750Y-067900
X146750Y-116150
X147000Y-118750
X147000Y-128900
X147000Y-130750
X147000Y-133900
X147050Y-099850
X147050Y-112450
X147050Y-117450
X147050Y-123800
X147050Y-125100
X147050Y-126350
X147050Y-132700
X147050Y-136150
X147100Y-098400
X147100Y-109850
X147100Y-111200
X147100Y-120000
X147100Y-127600
X147150Y-106050
X147150Y-108550
X147150Y-122500
X147200Y-094600
X147200Y-095850
X147250Y-091250
X147250Y-092550
X147250Y-104750
X147250Y-107300
X147250Y-121250
X147300Y-103500
X147400Y-102250
X147500Y-075500
X147500Y-078050
X147500Y-079350
X147500Y-084450
X147500Y-085850
X147550Y-071750
X147550Y-074300
X147550Y-076800
X147550Y-080600
X147550Y-081950
X147550Y-083200
X147550Y-139700
X147600Y-073000
X147650Y-097150
X147750Y-069400
X147800Y-089950
X148500Y-093350
X151100Y-069850
X151100Y-129000
X153250Y-067250
X153350Y-069900
X153400Y-077450
X153400Y-115350
X153450Y-072350
X153450Y-107950
X153500Y-125700
X153550Y-082250
X153550Y-092750
X153550Y-097850
X153550Y-102900
X153550Y-120550
X153550Y-130750
X153650Y-086300
T2
X119690Y-069060
X119690Y-071600
X119690Y-074140
X119690Y-076680
X119690Y-079220
X119690Y-081760
X119690Y-084300
X119690Y-086840
X119690Y-089380
X119690Y-091920
X119690Y-094460
X119690Y-097000
X119690Y-099540
X119690Y-102080
X119690Y-104620
X119690Y-107160
X119690Y-109700
X119690Y-112240
X119690Y-114780
X119690Y-117320
X119690Y-119860
X119690Y-122400
X119690Y-124940
X119690Y-127480
X119690Y-130020
X121595Y-070330
X121595Y-072870
X121595Y-075410
X121595Y-077950
X121595Y-080490
X121595Y-083030
X121595Y-085570
X121595Y-088110
X121595Y-090650
X121595Y-093190
X121595Y-095730
X121595Y-098270
X121595Y-100810
X121595Y-103350
X121595Y-105890
X121595Y-108430
X121595Y-110970
X121595Y-113510
X121595Y-116050
X121595Y-118590
X121595Y-121130
X121595Y-123670
X121595Y-126210
X121595Y-128750
X121595Y-131290
X123500Y-069060
X123500Y-071600
X123500Y-074140
X123500Y-076680
X123500Y-079220
X123500Y-081760
X123500Y-084300
X123500Y-086840
X123500Y-089380
X123500Y-091920
X123500Y-094460
X123500Y-097000
X123500Y-099540
X123500Y-102080
X123500Y-104620
X123500Y-107160
X123500Y-109700
X123500Y-112240
X123500Y-114780
X123500Y-117320
X123500Y-119860
X123500Y-122400
X123500Y-124940
X123500Y-127480
X123500Y-130020
X125405Y-070330
X125405Y-072870
X125405Y-075410
X125405Y-077950
X125405Y-080490
X125405Y-083030
X125405Y-085570
X125405Y-088110
X125405Y-090650
X125405Y-093190
X125405Y-095730
X125405Y-098270
X125405Y-100810
X125405Y-103350
X125405Y-105890
X125405Y-108430
X125405Y-110970
X125405Y-113510
X125405Y-116050
X125405Y-118590
X125405Y-121130
X125405Y-123670
X125405Y-126210
X125405Y-128750
X125405Y-131290
T3
X149860Y-060960
X149860Y-063500
X149860Y-066040
X149860Y-068580
X149860Y-071120
X149860Y-073660
X149860Y-076200
X149860Y-078740
X149860Y-081280
X149860Y-083820
X149860Y-088900
X149860Y-091440
X149860Y-093980
X149860Y-096520
X149860Y-099060
X149860Y-101600
X149860Y-104140
X149860Y-106680
X149860Y-109220
X149860Y-111760
X149860Y-116840
X149860Y-119380
X149860Y-121920
X149860Y-124460
X149860Y-127000
X149860Y-129540
X149860Y-132080
X149860Y-134620
X149860Y-137160
X149860Y-139700
X152400Y-060960
X152400Y-063500
X152400Y-066040
X152400Y-068580
X152400Y-071120
X152400Y-073660
X152400Y-076200
X152400Y-078740
X152400Y-081280
X152400Y-083820
X152400Y-088900
X152400Y-091440
X152400Y-093980
X152400Y-096520
X152400Y-099060
X152400Y-101600
X152400Y-104140
X152400Y-106680
X152400Y-109220
X152400Y-111760
X152400Y-116840
X152400Y-119380
X152400Y-121920
X152400Y-124460
X152400Y-127000
X152400Y-129540
X152400Y-132080
X152400Y-134620
X152400Y-137160
X152400Y-139700
T4
X121595Y-065750
X121595Y-134600
M30
